<svg xmlns="http://www.w3.org/2000/svg" width="98.885" height="69.462" viewBox="0 0 98.885 69.462">
  <path id="Icon_awesome-clinic-medical" data-name="Icon awesome-clinic-medical" d="M49.443,15.6,11.927,41.746a8.546,8.546,0,0,1-.939.454v25.09a2.51,2.51,0,0,0,2.747,2.171H85.15A2.51,2.51,0,0,0,87.9,67.291V42.206a8.632,8.632,0,0,1-.9-.434ZM65.923,51.011A1.255,1.255,0,0,1,64.55,52.1H54.936v7.6a1.255,1.255,0,0,1-1.373,1.085h-8.24a1.255,1.255,0,0,1-1.373-1.085V52.1H34.335a1.255,1.255,0,0,1-1.373-1.085V44.5a1.255,1.255,0,0,1,1.373-1.085h9.614v-7.6a1.255,1.255,0,0,1,1.373-1.085h8.24a1.255,1.255,0,0,1,1.373,1.085v7.6H64.55A1.255,1.255,0,0,1,65.923,44.5ZM97.973,32.056,88.04,25.124,54.035,1.4a8.237,8.237,0,0,0-9.176,0L.911,32.056A1.87,1.87,0,0,0,.7,35.122l3.676,3.232a3.28,3.28,0,0,0,3.88.164L47.626,11.075a3.313,3.313,0,0,1,3.634,0L90.628,38.516a3.28,3.28,0,0,0,3.88-.164l3.674-3.232A1.87,1.87,0,0,0,97.973,32.056Z" transform="translate(0.001 0.001)" fill="#388f27"/>
</svg>
