<svg xmlns="http://www.w3.org/2000/svg" width="72.958" height="72.958" viewBox="0 0 72.958 72.958">
  <path id="Icon_material-pages" data-name="Icon material-pages" d="M4.5,12.606V36.926H24.766L20.713,20.713l16.213,4.053V4.5H12.606A8.13,8.13,0,0,0,4.5,12.606ZM24.766,45.032H4.5V69.351a8.13,8.13,0,0,0,8.106,8.106H36.926V57.192L20.713,61.245ZM61.245,61.245,45.032,57.192V77.458H69.351a8.13,8.13,0,0,0,8.106-8.106V45.032H57.192ZM69.351,4.5H45.032V24.766l16.213-4.053L57.192,36.926H77.458V12.606A8.13,8.13,0,0,0,69.351,4.5Z" transform="translate(-4.5 -4.5)" fill="#388f27"/>
</svg>
