<svg xmlns="http://www.w3.org/2000/svg" width="80.21" height="80.21" viewBox="0 0 80.21 80.21">
  <path id="Icon_awesome-info-circle" data-name="Icon awesome-info-circle" d="M40.668.563A40.105,40.105,0,1,0,80.773,40.668,40.111,40.111,0,0,0,40.668.563Zm0,17.789a6.792,6.792,0,1,1-6.792,6.792A6.792,6.792,0,0,1,40.668,18.351Zm9.056,41.075a1.941,1.941,0,0,1-1.941,1.941H33.552a1.941,1.941,0,0,1-1.941-1.941V55.545A1.941,1.941,0,0,1,33.552,53.6h1.941V43.255H33.552a1.941,1.941,0,0,1-1.941-1.941V37.433a1.941,1.941,0,0,1,1.941-1.941H43.9a1.941,1.941,0,0,1,1.941,1.941V53.6h1.941a1.941,1.941,0,0,1,1.941,1.941Z" transform="translate(-0.563 -0.563)" fill="#388f27"/>
</svg>
